<svg width="1040" height="400" fill="none" xmlns="http://www.w3.org/2000/svg"><path fill="#005358" d="M0 0h1040v400H0z"/><path d="M588.11 162.32s4.4.98 7.17-.65c2.77-1.63 6.35-7.17 12.38-7.17 8.96 0 9.94 8.4 16.78 8.11M588.11 182.32s4.4.98 7.17-.65c2.77-1.63 6.35-7.17 12.38-7.17 8.96 0 9.94 8.4 16.78 8.11" stroke="#00848C" stroke-width="2" stroke-miterlimit="10" stroke-linecap="round" stroke-linejoin="round"/><path d="M622.16 162.32s4.4.98 7.17-.65c2.77-1.63 6.35-7.17 12.38-7.17 8.96 0 9.94 8.4 16.78 8.11M622.16 182.32s4.4.98 7.17-.65c2.77-1.63 6.35-7.17 12.38-7.17 8.96 0 9.94 8.4 16.78 8.11" stroke="#00848C" stroke-width="2" stroke-miterlimit="10" stroke-linecap="round" stroke-linejoin="round"/><path d="M656.16 162.32s4.4.98 7.17-.65c2.77-1.63 6.35-7.17 12.38-7.17 8.96 0 9.94 8.4 16.78 8.11M656.16 182.32s4.4.98 7.17-.65c2.77-1.63 6.35-7.17 12.38-7.17 8.96 0 9.94 8.4 16.78 8.11" stroke="#00848C" stroke-width="2" stroke-miterlimit="10" stroke-linecap="round" stroke-linejoin="round"/><path d="M690.16 162.32s4.4.98 7.17-.65c2.77-1.63 6.35-7.17 12.38-7.17 8.96 0 9.94 8.4 16.78 8.11M690.16 182.32s4.4.98 7.17-.65c2.77-1.63 6.35-7.17 12.38-7.17 8.96 0 9.94 8.4 16.78 8.11" stroke="#00848C" stroke-width="2" stroke-miterlimit="10" stroke-linecap="round" stroke-linejoin="round"/><path stroke="#00848C" stroke-width="2" d="M883 116h58v8h-58zM841 357h68v8h-68zM35 216h88v8H35zM132 52h68v8h-68z"/><circle cx="980" cy="131" r="4" stroke="#00848C" stroke-width="2"/><circle cx="92" cy="191" r="4" stroke="#00848C" stroke-width="2"/><circle cx="230" cy="46" r="4" stroke="#00848C" stroke-width="2"/><path d="M285 102.125v153.75M208.125 179H236m125.875 0H248.5M216.991 143.125h136.015M216.994 214.875h136.012M285 102.125c24.059 0 43.562 34.418 43.562 76.875S309.059 255.875 285 255.875c-22.915 0-41.697-31.222-43.432-70.875m0-12c1.249-28.545 11.332-52.721 25.432-64.026" stroke="#00848C" stroke-width="2" stroke-miterlimit="10" stroke-linecap="round" stroke-linejoin="round"/><path d="M265 104.752c-32.76 8.803-56.875 38.709-56.875 74.248 0 42.457 34.418 76.875 76.875 76.875s76.875-34.418 76.875-76.875-34.418-76.875-76.875-76.875c-2.701 0-5.37.139-8 .411" stroke="#00848C" stroke-width="2" stroke-miterlimit="10" stroke-linecap="round" stroke-linejoin="round"/><circle cx="242" cy="179" r="6" stroke="#00848C" stroke-width="2"/><circle cx="271" cy="104" r="6" stroke="#00848C" stroke-width="2"/><path d="M246.5 175c4.667-5.5 24-14.5 39 0M266.5 99.906A41.038 41.038 0 00247 95c-23.196 0-42 19.252-42 43 0 19.851 13.139 36.561 31 41.51" stroke="#00848C" stroke-width="2" stroke-linecap="round" stroke-linejoin="round"/><rect x="272" y="62" width="316" height="234" rx="13" fill="#005358" stroke="#00848C" stroke-width="2"/><path d="M286 77a1 1 0 011-1h286a1 1 0 011 1v204a1 1 0 01-1 1H287a1 1 0 01-1-1V77z" stroke="#00848C" stroke-width="2"/><path fill="#00848C" d="M285 95h290v2H285z"/><rect x="320" y="119" width="220" height="36" rx="2" fill="#00848C"/><rect x="322" y="175" width="30" height="30" rx="6" fill="#FFD480"/><rect x="322" y="225" width="30" height="30" rx="6" fill="#51D7DE"/><path fill-rule="evenodd" clip-rule="evenodd" d="M453 183h-90v4h90v-4zm-20 10h-70v4h70v-4zM453 233h-90v4h90v-4zm40 10H363v4h130v-4z" fill="#00848C"/><rect x="624" y="220" width="78" height="140" rx="7" stroke="#00848C" stroke-width="2"/><path d="M629 233a1 1 0 011-1h66a1 1 0 011 1v114a1 1 0 01-1 1h-66a1 1 0 01-1-1V233z" stroke="#00848C" stroke-width="2"/><path fill="#00848C" d="M628 248h70v2h-70z"/><rect x="638" y="260" width="14" height="14" rx="3" fill="#51D7DE"/><rect x="638" y="284" width="14" height="14" rx="3" fill="#FFD480"/><rect x="638" y="308" width="14" height="14" rx="3" fill="#51D7DE"/><path fill-rule="evenodd" clip-rule="evenodd" d="M679 260h-20v4h20v-4zm10 10h-30v4h30v-4zM689 284h-30v4h30v-4zm0 10h-30v4h30v-4zM683 308h-24v4h24v-4zm-7 10h-17v4h17v-4z" fill="#00848C"/><g filter="url(#filter0_d)"><rect x="720" y="129" width="140" height="190" rx="10" fill="#FFD480"/></g><path fill-rule="evenodd" clip-rule="evenodd" d="M846 159h-70v4h70v-4zm-10 10h-60v4h60v-4zM816 217h-40v4h40v-4zm20 10h-60v4h60v-4zM836 275h-60v4h60v-4zm10 10h-70v4h70v-4z" fill="#fff"/><circle cx="750" cy="166" r="14" fill="#FFAA05"/><circle cx="750" cy="224" r="14" fill="#FFAA05"/><circle cx="750" cy="282" r="14" fill="#FFAA05"/><path fill="#005358" d="M734 194h112v2H734zM734 252h112v2H734z"/><g filter="url(#filter1_d)"><rect x="111" y="250" width="188" height="90" rx="10" fill="#FFD480"/></g><path d="M128.5 275.048c1.5.833 5.2 2 8 0 3.5-2.5 4-7.5 2-8s-4 3-3 6 6 4.5 9.5 1.5 3-6.5 1.5-6.5-4.5 5.5 0 7 9.5-3 9.5-5-3.156.005-3 2.5c.5 8 18-1.5 27 1.5" stroke="#FFAA05" stroke-width="2" stroke-linecap="round" stroke-linejoin="round"/><path fill="#fff" d="M128 283.548h60v4h-60zM128 293.548h40v4h-40z"/><rect x="128" y="309.548" width="50" height="14" rx="7" fill="#FFAA05"/><rect x="208" y="270" width="74" height="50" rx="4" fill="#FFAA05"/><g filter="url(#filter2_d)"><rect x="642" y="43" width="64" height="64" rx="10" fill="#FFD480"/></g><path d="M688.567 79.037c-1.346-1.425-2.692-2.929-2.692-5.62v-4.75c0-6.65-5.225-11.875-11.875-11.875s-11.875 5.225-11.875 11.875v4.75c0 2.691-1.346 4.195-2.692 5.62-1.029 1.188-2.058 2.296-2.058 3.88 0 3.404 6.492 5.541 16.625 5.541s16.625-2.137 16.625-5.541c0-1.584-1.029-2.692-2.058-3.88zM674 90.042c-1.821 0-3.483-.08-5.067-.238.871 1.98 2.85 3.404 5.067 3.404s4.275-1.425 5.067-3.404a50.658 50.658 0 01-5.067.238z" fill="#005358"/><circle cx="706" cy="43" r="14" fill="#51D7DE" stroke="#005358" stroke-width="4"/><g filter="url(#filter3_d)"><rect x="900" y="166" width="96" height="60" rx="8" fill="#51D7DE"/></g><path fill="#00848C" d="M908 180h26v32h-26z"/><path fill-rule="evenodd" clip-rule="evenodd" d="M980 180h-36v4h36v-4zm-10 10h-26v4h26v-4z" fill="#fff"/><path fill="#fff" d="M944 208h16v4h-16z"/><path d="M986.798 194.957l1.265 1.104L975.137 212l-1.127-1.127 12.788-15.916zm-9.315 6.946c-.598 0-1.15-.146-1.656-.437a3.573 3.573 0 01-1.219-1.219 3.264 3.264 0 01-.437-1.656c0-.598.146-1.15.437-1.656a3.375 3.375 0 011.219-1.196 3.133 3.133 0 011.656-.46c.598 0 1.15.153 1.656.46.506.291.905.69 1.196 1.196.307.506.46 1.058.46 1.656 0 .598-.153 1.15-.46 1.656-.291.506-.69.912-1.196 1.219a3.264 3.264 0 01-1.656.437zm1.771-3.312c0-.46-.168-.866-.506-1.219-.322-.353-.743-.529-1.265-.529-.521 0-.943.176-1.265.529a1.755 1.755 0 00-.483 1.219c0 .46.161.866.483 1.219.322.353.744.529 1.265.529.522 0 .943-.176 1.265-.529.338-.353.506-.759.506-1.219zm5.382 13.662c-.598 0-1.15-.146-1.656-.437a3.573 3.573 0 01-1.219-1.219 3.264 3.264 0 01-.437-1.656c0-.598.146-1.15.437-1.656a3.375 3.375 0 011.219-1.196 3.133 3.133 0 011.656-.46c.598 0 1.15.153 1.656.46.506.291.905.69 1.196 1.196.307.506.46 1.058.46 1.656 0 .598-.153 1.15-.46 1.656-.291.506-.69.912-1.196 1.219a3.264 3.264 0 01-1.656.437zm1.748-3.312c0-.46-.161-.866-.483-1.219-.322-.353-.743-.529-1.265-.529-.521 0-.943.176-1.265.529a1.755 1.755 0 00-.483 1.219c0 .46.161.866.483 1.219.322.353.744.529 1.265.529.522 0 .943-.176 1.265-.529.322-.353.483-.759.483-1.219z" fill="#005358"/><path d="M916 267l16 16 11-11" stroke="#00848C" stroke-width="2" stroke-miterlimit="10" stroke-linecap="square"/><path d="M932 312c16.016 0 29-12.984 29-29s-12.984-29-29-29-29 12.984-29 29 12.984 29 29 29zM932 260v5M955 283h-5M932 306v-5M909 283h5" stroke="#00848C" stroke-width="2" stroke-miterlimit="10" stroke-linecap="square"/><g filter="url(#filter4_d)"><rect x="77" y="88" width="108" height="72" rx="8" fill="#51D7DE"/></g><path d="M77 138h108v14a8 8 0 01-8 8H85a8 8 0 01-8-8v-14z" fill="#00848C"/><path d="M144 116.732c1.333-.77 1.333-2.694 0-3.464l-19.5-11.258c-1.333-.77-3 .192-3 1.732v22.516c0 1.54 1.667 2.502 3 1.732l19.5-11.258z" fill="#fff"/><rect x="91" y="148" width="80" height="2" rx="1" fill="#FFD480"/><circle cx="104" cy="149" r="4" fill="#fff"/><g filter="url(#filter5_d)"><rect x="453" y="257" width="150" height="76" rx="8" fill="#51D7DE"/></g><path d="M453 263a6 6 0 016-6h64v76h-64a6 6 0 01-6-6v-64z" fill="#00848C"/><path fill="#fff" d="M536 276h50v4h-50zM537.413 301.435c5.74-1.14 10.58-5.9 11.76-11.64.25-1.21.55-2.74-.16-3.86-.75-1.18-2.31-1.42-3.53-.92-2.58 1.05-4.24 4.67-4.74 7.21-.54 2.75.08 6 3.02 7.07 2.78 1.01 5.91-.33 8.09-2.06 1.13-.89 2.09-1.98 2.86-3.2.64-1.02 1.5-2.54 1.44-3.8-.06-1.28-1.34-2-2.47-1.42-1.31.67-2.14 2.57-2.55 3.89-.46 1.5-.6 3.31.27 4.7.9 1.43 2.65 1.74 4.2 1.39 3.29-.74 6.1-3.56 7.51-6.52.62-1.3-1.32-2.44-1.94-1.14-.85 1.77-2.91 6.41.26 7.2 2.69.67 5.11-2.99 5.93-5.03l-2.21-.3c-.18 1.64-.92 4.2.6 5.44 1.41 1.15 3.39.25 4.48-.91 1.29-1.38 1.91-3.33 2.52-5.08.81-2.31 1.47-4.67 1.99-7.06.31-1.41-1.75-1.99-2.17-.6-.72 2.41-1.17 4.9-1.3 7.42-.09 1.79-.12 3.96 1.25 5.33 3.3 3.31 7.58-1.73 8.66-4.63.44-1.19-1.5-2.01-2.06-.87-.74 1.53-1.4 3.64.09 4.96.74.66 1.78.78 2.71.58.47-.1.91-.3 1.34-.52.15-.08 1.38-.76 1.08-.82.17.04.57.71.79.84.33.2.78.3 1.17.3 1.09.01 2.03-.96 3.03-.44 1.98 1.03 3.9 1.49 6.09.71 1.35-.49.77-2.66-.6-2.17-1.68.6-3 .27-4.5-.58-.61-.35-1.16-.53-1.87-.45-.48.05-1.79.84-2.16.66-.13-.07-.3-.45-.43-.57-.25-.23-.46-.33-.78-.41-.71-.17-1.33.12-1.95.43-.57.29-1.68 1.18-2.31.72-.61-.44-.02-1.58.24-2.12-.69-.29-1.37-.58-2.06-.87-.49 1.32-1.35 2.57-2.53 3.37-1.29.88-2.57.7-2.9-.94-.26-1.33-.08-2.84.07-4.17.19-1.76.58-3.49 1.09-5.19-.71-.14-1.43-.34-2.15-.54-.66 2.98-1.5 5.94-2.63 8.78-.39.97-.98 2.56-2.07 2.96-1.05.39-.79-.56-.73-1.24.08-.77.17-1.53.25-2.3.15-1.37-1.78-1.37-2.21-.3-.43 1.08-1.56 2.99-2.81 3.27-.41.1-.31.29-.4-.23-.05-.31.13-.72.21-1 .23-.86.54-1.68.92-2.48-.65-.38-1.3-.76-1.94-1.14-.83 1.76-2.06 3.28-3.69 4.35-1.46.95-4.5 2.26-4.46-.61.01-1.03.39-2.09.9-2.97.12-.21.43-.5.48-.72.05-.07.11-.14.16-.21-.23-.16-.46-.32-.7-.47-.17.09-.54 1.4-.64 1.59a10.27 10.27 0 01-3.78 4.09c-1.46.89-3.62 1.73-5.27.82-1.8-.99-1.5-3.52-1.02-5.16.29-.99.72-1.92 1.29-2.79.41-.63 1.25-1.98 2.12-2.04 1.5-.1-.12 4.18-.47 4.92-1.77 3.76-5.21 6.52-9.29 7.32-1.41.28-.81 2.45.61 2.17zM536 309h30v4h-30z"/><mask id="a" maskUnits="userSpaceOnUse" x="453" y="257" width="70" height="76"><path d="M453 263a6 6 0 016-6h64v76h-64a6 6 0 01-6-6v-64z" fill="#E6ACAC"/></mask><g mask="url(#a)" stroke="#FFD480" stroke-width="2" stroke-linecap="round" stroke-linejoin="round"><path d="M451.5 292c4.333.833 14.8 1.4 22-3 9-5.5 6.5-16-.5-18.5s-12 1.5-11.5 5c.167 2 2.8 5.6 12 4 5.737-.998 16.5-9.2 14.5-24M509.5 254.5c-3.167 2.167-9.3 8.2-8.5 15 1 8.5 16.5 3 19.5-14M449.5 305.5c8.5 0 30 5 26 30.5"/><path d="M450 325.5c2.167-.333 6-1.5 11-10 5.102-8.673 11.5-20.5 18.5-19 8 1 8.5 19 4.5 39.5M524.5 270.5c-.167 3-3.4 10.9-15 18.5-14.5 9.5-15.5 19-10.5 25.5s17 3.5 20-3-5.5-8.5-7.5 0 6.5 13 13 10.5"/></g><g filter="url(#filter6_d)"><rect x="823" y="58" width="42" height="30" rx="6" fill="#FFD480"/></g><path fill-rule="evenodd" clip-rule="evenodd" d="M856 66h-24v4h24v-4zm-8 10h-16v4h16v-4z" fill="#fff"/><rect x="791" y="46" width="46" height="18" rx="9" fill="#00848C"/><path d="M800.08 60.1c4.04-.31 7.53-3.22 10.07-6.2 1.09-1.27 1.64-3.51-.1-4.55-1.64-.99-3.68.3-4.71 1.58-2.1 2.61-2.87 7.97 1.56 8.57 3.76.51 7.54-2.29 8.99-5.61.44-1.02-.47-2.07-1.54-1.54-1.78.89-1.76 3.39-.32 4.58 2.04 1.7 4.58.28 6.69-.4l-1.38-1.38c-.38 1.48.6 2.82 2.07 3.15.77.17 1.54-.02 2.26-.29.82-.32 1.91-1.13 2.8-.66 1.28.68 2.42-1.26 1.14-1.94-.94-.5-1.89-.55-2.9-.25-.29.09-3.41 1.45-3.18.59.21-.8-.55-1.65-1.38-1.38-1.08.35-2.18 1.01-3.33 1.11-.43.04-1.15.04-1.44-.36-.22-.31-.21-.66.13-.83l-1.54-1.54c-.9 2.05-2.56 3.68-4.75 4.31-1.05.3-2.78.58-3.26-.71-.4-1.04.14-2.41.66-3.31.27-.47.6-.95 1.04-1.28.35-.27 1.27-.84 1.23-.11-.04.93-1.78 2.16-2.42 2.76-1.79 1.67-3.87 3.25-6.39 3.44-1.43.11-1.45 2.36 0 2.25z" fill="#51D7DE"/><defs><filter id="filter0_d" x="720" y="129" width="140" height="198" filterUnits="userSpaceOnUse" color-interpolation-filters="sRGB"><feFlood flood-opacity="0" result="BackgroundImageFix"/><feColorMatrix in="SourceAlpha" values="0 0 0 0 0 0 0 0 0 0 0 0 0 0 0 0 0 0 127 0"/><feOffset dy="8"/><feColorMatrix values="0 0 0 0 0 0 0 0 0 0 0 0 0 0 0 0 0 0 0.34 0"/><feBlend mode="multiply" in2="BackgroundImageFix" result="effect1_dropShadow"/><feBlend in="SourceGraphic" in2="effect1_dropShadow" result="shape"/></filter><filter id="filter1_d" x="111" y="250" width="188" height="98" filterUnits="userSpaceOnUse" color-interpolation-filters="sRGB"><feFlood flood-opacity="0" result="BackgroundImageFix"/><feColorMatrix in="SourceAlpha" values="0 0 0 0 0 0 0 0 0 0 0 0 0 0 0 0 0 0 127 0"/><feOffset dy="8"/><feColorMatrix values="0 0 0 0 0 0 0 0 0 0 0 0 0 0 0 0 0 0 0.34 0"/><feBlend mode="multiply" in2="BackgroundImageFix" result="effect1_dropShadow"/><feBlend in="SourceGraphic" in2="effect1_dropShadow" result="shape"/></filter><filter id="filter2_d" x="642" y="43" width="64" height="70" filterUnits="userSpaceOnUse" color-interpolation-filters="sRGB"><feFlood flood-opacity="0" result="BackgroundImageFix"/><feColorMatrix in="SourceAlpha" values="0 0 0 0 0 0 0 0 0 0 0 0 0 0 0 0 0 0 127 0"/><feOffset dy="6"/><feColorMatrix values="0 0 0 0 0 0 0 0 0 0 0 0 0 0 0 0 0 0 0.34 0"/><feBlend mode="multiply" in2="BackgroundImageFix" result="effect1_dropShadow"/><feBlend in="SourceGraphic" in2="effect1_dropShadow" result="shape"/></filter><filter id="filter3_d" x="900" y="166" width="96" height="66" filterUnits="userSpaceOnUse" color-interpolation-filters="sRGB"><feFlood flood-opacity="0" result="BackgroundImageFix"/><feColorMatrix in="SourceAlpha" values="0 0 0 0 0 0 0 0 0 0 0 0 0 0 0 0 0 0 127 0"/><feOffset dy="6"/><feColorMatrix values="0 0 0 0 0 0 0 0 0 0 0 0 0 0 0 0 0 0 0.34 0"/><feBlend mode="multiply" in2="BackgroundImageFix" result="effect1_dropShadow"/><feBlend in="SourceGraphic" in2="effect1_dropShadow" result="shape"/></filter><filter id="filter4_d" x="77" y="88" width="108" height="78" filterUnits="userSpaceOnUse" color-interpolation-filters="sRGB"><feFlood flood-opacity="0" result="BackgroundImageFix"/><feColorMatrix in="SourceAlpha" values="0 0 0 0 0 0 0 0 0 0 0 0 0 0 0 0 0 0 127 0"/><feOffset dy="6"/><feColorMatrix values="0 0 0 0 0 0 0 0 0 0 0 0 0 0 0 0 0 0 0.34 0"/><feBlend mode="multiply" in2="BackgroundImageFix" result="effect1_dropShadow"/><feBlend in="SourceGraphic" in2="effect1_dropShadow" result="shape"/></filter><filter id="filter5_d" x="453" y="257" width="150" height="82" filterUnits="userSpaceOnUse" color-interpolation-filters="sRGB"><feFlood flood-opacity="0" result="BackgroundImageFix"/><feColorMatrix in="SourceAlpha" values="0 0 0 0 0 0 0 0 0 0 0 0 0 0 0 0 0 0 127 0"/><feOffset dy="6"/><feColorMatrix values="0 0 0 0 0 0 0 0 0 0 0 0 0 0 0 0 0 0 0.34 0"/><feBlend mode="multiply" in2="BackgroundImageFix" result="effect1_dropShadow"/><feBlend in="SourceGraphic" in2="effect1_dropShadow" result="shape"/></filter><filter id="filter6_d" x="823" y="58" width="42" height="36" filterUnits="userSpaceOnUse" color-interpolation-filters="sRGB"><feFlood flood-opacity="0" result="BackgroundImageFix"/><feColorMatrix in="SourceAlpha" values="0 0 0 0 0 0 0 0 0 0 0 0 0 0 0 0 0 0 127 0"/><feOffset dy="6"/><feColorMatrix values="0 0 0 0 0 0 0 0 0 0 0 0 0 0 0 0 0 0 0.34 0"/><feBlend mode="multiply" in2="BackgroundImageFix" result="effect1_dropShadow"/><feBlend in="SourceGraphic" in2="effect1_dropShadow" result="shape"/></filter></defs></svg>